<?xml version="1.0" encoding="UTF-8"?>
<svg viewBox="0 0 462.16714 462.16711" xmlns="http://www.w3.org/2000/svg">
 <g transform="translate(-314.63 -113.01)">
  <g transform="translate(412.99 179.89)">
   <path transform="matrix(1.056 0 0 1.056 -5.7431 12.545)" d="m86.368 50.038a18.94 18.94 0 1 1 -37.881 0 18.94 18.94 0 1 1 37.881 0z"/>
   <path d="m57.173 87.666h14.647a17.173 17.173 0 0 1 17.173 17.173v80.35a17.173 17.173 0 0 1 -17.173 17.173h-14.647a17.173 17.173 0 0 1 -17.173 -17.173v-80.35a17.173 17.173 0 0 1 17.173 -17.173"/>
   <path d="m55.053 173.79h80.812a14.647 14.647 0 0 1 14.647 14.647 14.647 14.647 0 0 1 -14.647 14.647h-80.812a14.647 14.647 0 0 1 -14.647 -14.647 14.647 14.647 0 0 1 14.647 -14.647"/>
   <path d="m139.4 179.35a11.112 11.112 0 0 1 11.112 11.112v70.711a11.112 11.112 0 0 1 -11.112 11.112 11.112 11.112 0 0 1 -11.112 -11.112v-70.711a11.112 11.112 0 0 1 11.112 -11.112"/>
   <path d="m107.92 142.98h130.31a7.8287 7.8287 0 0 1 7.8287 7.8287v0.50508a7.8287 7.8287 0 0 1 -7.8287 7.8287h-130.31a7.8287 7.8287 0 0 1 -7.8287 -7.8287v-0.50508a7.8287 7.8287 0 0 1 7.8287 -7.8287"/>
   <path d="m116.44 127.04h21.17a8.3554 7.3236 0 0 1 8.3554 7.3236 8.3554 7.3236 0 0 1 -8.3554 7.3236h-21.17a8.3554 7.3236 0 0 1 -8.3554 -7.3236 8.3554 7.3236 0 0 1 8.3554 -7.3236"/>
   <path transform="rotate(44.49)" d="m127.42 6.8155h43.898a10.376 6.9961 0 0 1 10.376 6.9961v1.1602a10.376 6.9961 0 0 1 -10.376 6.9961h-43.898a10.376 6.9961 0 0 1 -10.376 -6.9961v-1.1602a10.376 6.9961 0 0 1 10.376 -6.9961"/>
   <path d="m152.55 127.55h18.688a5.0508 6.8185 0 0 1 5.0508 6.8185 5.0508 6.8185 0 0 1 -5.0508 6.8185h-18.688a5.0508 6.8185 0 0 1 -5.0508 -6.8185 5.0508 6.8185 0 0 1 5.0508 -6.8185"/>
   <path d="m195.28 132.07h42.931a1.5152 4.7982 0 0 1 1.5152 4.7982 1.5152 4.7982 0 0 1 -1.5152 4.7982h-42.931a1.5152 4.7982 0 0 1 -1.5152 -4.7982 1.5152 4.7982 0 0 1 1.5152 -4.7982"/>
   <path d="m210.01 118.94h15.152a1.5152 8.7108 0 0 1 1.5152 8.7108 1.5152 8.7108 0 0 1 -1.5152 8.7108h-15.152a1.5152 8.7108 0 0 1 -1.5152 -8.7108 1.5152 8.7108 0 0 1 1.5152 -8.7108"/>
   <path d="m181.26 63.662h7.5761a1.5152 9.5964 0 0 1 1.5152 9.5964v50.508a1.5152 9.5964 0 0 1 -1.5152 9.5964h-7.5761a1.5152 9.5964 0 0 1 -1.5152 -9.5964v-50.508a1.5152 9.5964 0 0 1 1.5152 -9.5964"/>
   <path d="m187.83 70.816 59.279 16.162v31.82l-58.774 8.5863-0.50508-56.569z" fill-rule="evenodd" stroke="#000"/>
   <path d="m44.426 205.87h63.64a1.5152 5.5558 0 0 1 1.5152 5.5558 1.5152 5.5558 0 0 1 -1.5152 5.5558h-63.64a1.5152 5.5558 0 0 1 -1.5152 -5.5558 1.5152 5.5558 0 0 1 1.5152 -5.5558"/>
  </g>
  <path d="m648.49 331.04c-29.021 0.61494-67.133 36.898-7.3941 113.51" fill="none" stroke="#000" stroke-linecap="round" stroke-width="15"/>
  <path d="m587.15 313.1c-1.0627-0.07507-9.294-0.08929-9.294-0.08929l0.06314-4c0.15747 0 5.6267-0.04311 7.0108 0.12626 1.8007 0.22034 2.4638 3.9802 2.22 3.963z" fill="#fff" fill-rule="evenodd" stroke="#fff"/>
  <path transform="rotate(45)" d="m494.62-301.74h269.13a24.607 24.607 0 0 1 24.607 24.607v269.13a24.607 24.607 0 0 1 -24.607 24.607h-269.13a24.607 24.607 0 0 1 -24.607 -24.607v-269.13a24.607 24.607 0 0 1 24.607 -24.607" fill="none" stroke="#000" stroke-linejoin="round" stroke-width="32.296"/>
  <path d="m485.73 392.3-41.429 70.714" fill="none" stroke="#000" stroke-width="15"/>
 </g>
</svg>
